PathFileType	4	(X/Y/Z)	C:/Users/beibeiliu/ov580/test_trc/User3\sequence.26_training_dense_left.trc
DataRate	CameraRate	NumFrames	NumMarkers	Units	OrigDataRate	OrigDataStartFrame	OrigNumFrames
120	120	11	19	mm	120	1	105
Frame#	Time	ThumbCMC			ThumbMCP			ThumbIP			ThumbTip			IndexMCP			IndexPIP			IndexTip			MiddleMCP			MiddlePIP			MiddleTip			RingMCP			RingPIP			RingTip			PinkyMCP			PinkyPIP			PinkyTip			BackHand1			BackHand2			BackHand3	
		X0	Y0	Z0	X1	Y1	Z1	X2	Y2	Z2	X3	Y3	Z3	X4	Y4	Z4	X5	Y5	Z5	X6	Y6	Z6	X7	Y7	Z7	X8	Y8	Z8	X9	Y9	Z9	X10	Y10	Z10	X11	Y11	Z11	X12	Y12	Z12	X13	Y13	Z13	X14	Y14	Z14	X15	Y15	Z15	X16	Y16	Z16	X17	Y17	Z17	X18	Y18	Z18	
0	0	-91.6083	7.19902	19.3586	-76.5259	19.3304	-7.32371	-66.5773	31.1621	-34.5155	-50.6974	20.7751	-59.981	-120.205	-27.3767	-42.3639	-126.406	-20.7033	-73.0683	-103.916	-11.1633	-99.0437	-118.206	-54.8677	-42.2411	-121.082	-62.6013	-74.7724	-94.1643	-57.6301	-100.736	-91.9383	-66.1441	-45.1271	-76.2521	-67.734	-68.6756	-46.4775	-53.1451	-71.1291	-63.2801	-73.0877	-30.6881	-44.0622	-62.9505	-40.5541	-27.7104	-39.3145	-33.5401	-102.502	-62.2748	7.73691	-98.1343	-57.0844	42.9634	-112.946	-30.1474	19.5752	
1	0.00833333	-103.05	-0.644356	19.4178	-93.834	14.9591	-8.59543	-83.8883	19.6466	-35.0217	-66.1751	12.2541	-57.9182	-123.025	-38.5263	-43.8441	-122.934	-32.0439	-78.0669	-96.2329	-14.7003	-89.6335	-115.004	-62.5308	-46.4165	-110.518	-64.6719	-75.9809	-76.4939	-43.909	-86.2605	-83.3663	-68.2769	-43.3747	-66.5902	-55.2546	-65.332	-45.1501	-29.1825	-48.0108	-60.5469	-65.2147	-27.1934	-38.7552	-42.7598	-34.2317	-33.675	-24.2595	-16.2958	-95.756	-68.24	11.7068	-96.7527	-62.8586	40.896	-116.18	-38.7285	18.9468	
2	0.0166667	-111.125	-4.38473	22.4384	-105.553	10.524	-5.09955	-97.3269	18.2722	-39.0026	-79.5927	11.2685	-52.942	-125.315	-40.0397	-49.3032	-118.314	-34.1982	-77.1477	-98.1392	-8.29833	-80.2592	-105.6	-63.3626	-47.1764	-96.5869	-56.6715	-78.8458	-72.4809	-26.3388	-74.9874	-81.3613	-59.2554	-42.9788	-59.6513	-38.9548	-60.4038	-51.144	-18.0265	-36.1927	-55.4556	-57.3776	-29.1013	-40.7796	-31.6156	-31.1268	-44.6366	-15.1664	-9.4289	-91.3126	-70.0085	10.5188	-92.6903	-63.0155	39.804	-115.714	-44.5652	21.9125	
3	0.025	-120.415	-6.46166	17.5255	-114.969	7.12985	-7.56401	-109.088	16.4654	-36.4162	-91.4029	15.2534	-53.1425	-119.751	-41.464	-51.7618	-113.966	-24.2337	-79.6351	-93.6676	-4.4055	-73.3633	-101.106	-57.2221	-49.9729	-87.5559	-44.057	-80.5844	-69.4084	-13.5783	-68.0216	-78.3717	-54.8068	-46.5905	-60.1107	-33.6777	-62.4443	-55.4309	-10.0439	-44.6305	-58.0626	-51.1276	-28.887	-46.1378	-25.7925	-39.8308	-47.0643	-4.73056	-18.8423	-87.7114	-66.3871	6.10343	-86.58	-64.5401	37.7779	-116.701	-47.3044	17.6897	
4	0.0333333	-121.24	-11.5061	21.6036	-123.887	5.2333	-8.8188	-122.612	18.3745	-34.7647	-104.215	20.7141	-56.2574	-118.239	-37.8288	-51.807	-110.579	-20.9592	-78.6228	-96.7048	8.27551	-69.6264	-97.7394	-53.5602	-58.2966	-85.7306	-33.831	-83.0011	-72.1982	-3.52619	-75.3198	-71.3158	-54.7845	-45.6055	-61.5645	-33.6213	-69.7136	-54.4948	-4.79083	-56.0629	-49.4434	-50.2903	-30.8668	-44.7617	-31.6624	-48.5724	-43.4701	-2.24965	-39.6887	-82.6016	-65.1078	5.61522	-87.3598	-61.1275	34.0932	-112.981	-48.9044	15.8916	
5	0.0416667	-123.319	-14.1305	16.4705	-128.82	2.99352	-7.17799	-129.43	16.4144	-35.9217	-118.048	26.1851	-56.5354	-116.056	-33.8918	-53.4056	-104.043	-12.1977	-79.0526	-96.4135	14.9903	-71.143	-90.5349	-51.8396	-58.8985	-85.7207	-36.807	-86.4658	-70.2934	-3.89309	-89.606	-68.1134	-54.6399	-46.3647	-58.1516	-41.3451	-74.6445	-49.7463	-14.064	-79.3391	-48.9443	-50.1029	-30.4488	-39.8055	-40.8276	-51.2908	-32.9804	-12.6983	-59.2222	-81.7705	-60.585	6.38438	-81.1581	-59.7248	33.7066	-113.312	-48.3879	14.5008	
6	0.05	-126.644	-15.202	16.3334	-134.026	3.45899	-6.9182	-134.661	18.0139	-28.6875	-128.925	28.6582	-51.2699	-110.91	-32.554	-59.1661	-110.352	-12.7436	-79.0753	-96.8816	15.6866	-78.2702	-87.8942	-51.6459	-60.208	-87.0044	-41.924	-86.7628	-73.9836	-11.0195	-106.768	-70.6461	-51.7198	-45.7068	-59.3564	-46.9244	-74.5811	-50.6807	-22.8968	-96.2329	-44.1813	-47.074	-30.5105	-33.7118	-38.8336	-54.5858	-25.018	-22.3705	-69.773	-79.5616	-56.976	4.87464	-77.4011	-59.5838	33.8879	-108.78	-51.5556	14.6664	
7	0.0583333	-127.233	-18.0932	21.2594	-135.42	0.847424	-2.43945	-143.064	16.732	-30.3911	-140.735	30.0757	-49.2222	-112.992	-35.9364	-58.0366	-112.798	-14.8186	-83.2353	-101.891	8.54338	-89.5778	-88.5059	-51.9338	-60.0538	-86.0272	-45.723	-86.8942	-79.7356	-21.1655	-116.777	-68.6581	-50.8438	-47.4737	-55.5886	-47.1604	-74.0441	-48.0644	-32.4743	-96.541	-41.589	-44.4641	-33.5181	-33.6375	-37.0676	-50.6155	-21.4215	-22.5534	-72.0811	-72.6675	-59.0061	4.83393	-75.641	-60.1688	31.3794	-110.257	-53.1429	12.8083	
8	0.0666667	-127.524	-20.3661	18.2489	-136.656	-2.45958	-4.70347	-143.735	12.0184	-27.2116	-145.463	26.2357	-50.0962	-113.88	-41.2156	-54.7877	-116.312	-26.8903	-86.2733	-113.935	-0.947895	-101.106	-88.5274	-53.3451	-56.2992	-83.2241	-50.0472	-89.0799	-81.0532	-36.1661	-117.747	-64.1693	-48.8897	-49.1316	-54.0317	-43.6996	-73.3288	-48.7719	-27.9877	-98.9702	-40.9099	-38.7979	-29.3482	-33.052	-28.5996	-48.1876	-20.8991	-13.0033	-66.9337	-73.4801	-57.8312	2.47301	-73.907	-59.4311	34.1797	-106.887	-52.9205	13.4344	
9	0.075	-126.166	-22.9473	20.3158	-141.274	-3.37912	-3.21618	-150.734	10.8046	-24.006	-147.808	23.99	-44.3704	-115.543	-43.2904	-54.586	-117.484	-37.798	-81.3584	-118.205	-19.7757	-105.717	-89.4974	-54.1775	-58.0969	-88.0905	-52.463	-86.2448	-83.6911	-43.0958	-116.219	-65.8581	-45.6768	-50.9938	-52.0531	-38.3401	-71.355	-46.5833	-18.0795	-93.7096	-44.7302	-34.5594	-29.7462	-32.4469	-16.8053	-47.0668	-27.8137	2.52782	-59.7301	-70.3055	-59.1768	3.48614	-73.6729	-60.9906	30.3244	-107.699	-54.4238	14.1083	
10	0.0833333	-128.376	-24.2898	18.8354	-138.582	-5.95786	-2.32901	-148.004	9.24258	-25.8054	-149.871	23.0058	-47.0635	-113.51	-44.7606	-54.3781	-121.31	-39.6452	-79.8991	-120.629	-26.1795	-107.08	-87.7307	-54.5789	-58.6616	-86.9035	-52.0298	-83.9243	-79.8742	-44.3337	-114.517	-59.4362	-41.8139	-46.8271	-51.9905	-29.1368	-69.8207	-47.959	-1.87716	-87.0988	-45.0332	-30.6196	-28.7126	-36.8601	-8.63873	-42.8871	-37.8241	15.4532	-48.2819	-70.3183	-59.8986	4.47441	-74.2179	-60.7333	30.2134	-105.736	-56.7325	13.8058	
